<svg xmlns="http://www.w3.org/2000/svg" viewBox="0 0 713.94 291.51"><defs><style>.cls-1{stroke:#000;stroke-miterlimit:10;stroke-width:6px;}</style></defs><title>Asset 5</title><g id="Layer_2" data-name="Layer 2"><g id="Layer_1-2" data-name="Layer 1"><path d="M.94,199.24v55.19a9.19,9.19,0,0,0,4.6,8L53.34,290a9.22,9.22,0,0,0,9.2,0l47.8-27.6a9.21,9.21,0,0,0,4.6-8V199.24a9.21,9.21,0,0,0-4.6-8l-47.8-27.6a9.22,9.22,0,0,0-9.2,0l-47.8,27.6A9.19,9.19,0,0,0,.94,199.24Z"/><path d="M4.41,52A4.4,4.4,0,0,0,.05,57a59,59,0,0,0,116.76,0,4.41,4.41,0,0,0-4.37-5Z"/><circle cx="57.94" cy="24" r="24"/><rect class="cls-1" x="39.89" y="117.04" width="36.09" height="36.09" rx="3.77" transform="translate(-78.55 80.53) rotate(-45)"/><path d="M168.09,236a4.4,4.4,0,0,0-4.36,5,59,59,0,0,0,116.76,0,4.41,4.41,0,0,0-4.37-5Z"/><path d="M188.8,202a2.7,2.7,0,0,0-2.67,3.06,36,36,0,0,0,71.23,0A2.69,2.69,0,0,0,254.7,202Z"/><path d="M163.94,109v55.19a9.19,9.19,0,0,0,4.6,8l47.8,27.6a9.22,9.22,0,0,0,9.2,0l47.8-27.6a9.21,9.21,0,0,0,4.6-8V109a9.21,9.21,0,0,0-4.6-8l-47.8-27.6a9.22,9.22,0,0,0-9.2,0L168.54,101A9.19,9.19,0,0,0,163.94,109Z"/><circle cx="220.94" cy="47" r="24"/><path d="M449.82,287a5.1,5.1,0,0,0,5.06-5.81,68.35,68.35,0,0,0-135.27,0,5.1,5.1,0,0,0,5.06,5.81Z"/><path d="M345.77,156.5v39.69a6.63,6.63,0,0,0,3.31,5.73l34.37,19.84a6.61,6.61,0,0,0,6.61,0l34.37-19.84a6.63,6.63,0,0,0,3.31-5.73V156.5a6.61,6.61,0,0,0-3.31-5.73l-34.37-19.84a6.61,6.61,0,0,0-6.61,0l-34.37,19.84A6.61,6.61,0,0,0,345.77,156.5Z"/><path d="M354.07,96a2.69,2.69,0,0,0-2.66,3.06,36,36,0,0,0,71.23,0A2.7,2.7,0,0,0,420,96Z"/><rect class="cls-1" x="368.98" y="51.04" width="36.09" height="36.09" rx="3.77" transform="translate(64.51 293.9) rotate(-45)"/><rect class="cls-1" x="498.9" y="184.94" width="84.41" height="84.41" rx="8.81" transform="translate(-2.13 449.15) rotate(-45)"/><circle cx="540.94" cy="144" r="24"/><path d="M507.69,85A2.68,2.68,0,0,0,505,88.06a36,36,0,0,0,71.22,0A2.68,2.68,0,0,0,573.59,85Z"/><path d="M517.44,45.83V68.6a3.79,3.79,0,0,0,1.9,3.29l19.72,11.38a3.79,3.79,0,0,0,3.8,0l19.72-11.38a3.81,3.81,0,0,0,1.9-3.29V45.83a3.81,3.81,0,0,0-1.9-3.29L542.86,31.15a3.79,3.79,0,0,0-3.8,0L519.34,42.54A3.79,3.79,0,0,0,517.44,45.83Z"/><path class="cls-1" d="M670.81,216.27l-32.32,60.16c-1.39,2.6.8,5.57,4.12,5.57h63.78c3.3,0,5.5-2.94,4.14-5.53l-31.46-60.16C677.47,213.25,672.44,213.23,670.81,216.27Z"/><circle cx="674.44" cy="178.5" r="33.5"/><rect class="cls-1" x="656.59" y="100.25" width="36.09" height="36.09" rx="3.77" transform="translate(113.95 511.69) rotate(-45)"/><path d="M641.88,57a2.69,2.69,0,0,0-2.66,3.06,36,36,0,0,0,71.22,0A2.68,2.68,0,0,0,707.78,57Z"/></g></g></svg>